<?xml version="1.0" encoding="utf-8"?>
<!-- Generator: Adobe Illustrator 23.0.4, SVG Export Plug-In . SVG Version: 6.00 Build 0)  -->
<svg version="1.1" id="Layer_1" xmlns="http://www.w3.org/2000/svg" xmlns:xlink="http://www.w3.org/1999/xlink" x="0px" y="0px"
	 viewBox="0 0 500 500" style="enable-background:new 0 0 500 500;" xml:space="preserve">
<style type="text/css">
	.st0{fill:#050B16;}
	.st1{fill:#B19B69;}
	.st2{fill:#F64D40;}
	.st3{fill:#2E58FF;}
</style>
<g>
	<path class="st0" d="M206.5,275.1c-0.2-0.2-0.3-0.5-0.3-0.9v-34.6c0-0.4,0.1-0.7,0.3-0.9c0.2-0.2,0.5-0.3,0.9-0.3h2.2
		c0.4,0,0.7,0.1,0.9,0.3s0.3,0.5,0.3,0.9v2.3c2-2.7,4.9-4,8.6-4c3.6,0,6.4,1.2,8.2,3.5c1.8,2.3,2.8,5.3,2.9,8.8c0,0.4,0.1,1,0.1,1.8
		c0,0.8,0,1.4-0.1,1.8c-0.1,3.5-1.1,6.5-2.9,8.8c-1.8,2.3-4.6,3.5-8.2,3.5c-3.7,0-6.5-1.3-8.4-4v12.1c0,0.3-0.1,0.6-0.3,0.9
		c-0.2,0.2-0.5,0.3-0.9,0.3h-2.3C207,275.4,206.7,275.3,206.5,275.1z M223.8,259.7c1.1-1.6,1.8-3.6,1.9-6.1c0-0.3,0.1-0.9,0.1-1.5
		c0-6.7-2.5-10-7.4-10c-2.4,0-4.3,0.8-5.5,2.4c-1.2,1.6-1.9,3.5-2,5.7c0,0.4-0.1,1.1-0.1,2c0,1,0,1.6,0.1,2c0.1,2.1,0.7,3.9,2,5.5
		c1.3,1.5,3.1,2.3,5.4,2.3C220.8,262,222.6,261.2,223.8,259.7z"/>
	<path class="st0" d="M238.8,265c-1.4-0.7-2.6-1.6-3.4-2.8c-0.9-1.2-1.3-2.5-1.3-4c0-2.3,0.9-4.2,2.8-5.6c1.9-1.5,4.4-2.4,7.7-2.9
		l7.8-1.1v-1.5c0-3.6-2.1-5.4-6.2-5.4c-1.6,0-2.9,0.3-3.9,1c-1,0.6-1.7,1.4-2.1,2.3c-0.1,0.3-0.3,0.6-0.4,0.7
		c-0.2,0.1-0.4,0.2-0.7,0.2h-2c-0.3,0-0.6-0.1-0.8-0.3c-0.2-0.2-0.3-0.5-0.3-0.8c0-0.8,0.4-1.7,1.1-2.8c0.7-1.1,1.9-2,3.5-2.8
		c1.6-0.8,3.5-1.2,5.7-1.2c3.9,0,6.7,0.9,8.4,2.7c1.7,1.8,2.5,4.1,2.5,6.8v16.9c0,0.3-0.1,0.6-0.3,0.9c-0.2,0.2-0.5,0.3-0.9,0.3
		h-2.3c-0.3,0-0.6-0.1-0.8-0.3c-0.2-0.2-0.3-0.5-0.3-0.9V262c-0.8,1.1-1.9,2.1-3.3,2.9c-1.5,0.8-3.3,1.1-5.6,1.1
		C241.8,266.1,240.2,265.7,238.8,265z M250.1,260c1.5-1.5,2.2-3.7,2.2-6.5v-1.5l-6.1,0.9c-2.5,0.3-4.4,0.9-5.7,1.8
		c-1.3,0.8-1.9,1.9-1.9,3.1c0,1.4,0.6,2.5,1.7,3.3c1.2,0.8,2.5,1.1,4.1,1.1C246.8,262.3,248.7,261.5,250.1,260z"/>
	<path class="st0" d="M267,275.1c-0.2-0.2-0.3-0.5-0.3-0.7c0-0.1,0.1-0.4,0.3-0.9l4.1-9.5l-9.9-23.5c-0.2-0.4-0.3-0.7-0.3-0.9
		c0-0.3,0.2-0.6,0.4-0.8c0.2-0.2,0.5-0.3,0.7-0.3h2.4c0.6,0,1,0.3,1.2,0.8l8,19.2l8.2-19.2c0.3-0.6,0.7-0.8,1.2-0.8h2.3
		c0.3,0,0.5,0.1,0.7,0.3c0.2,0.2,0.3,0.5,0.3,0.7c0,0.2-0.1,0.6-0.3,0.9l-14.7,34.2c-0.2,0.3-0.4,0.5-0.5,0.6
		c-0.2,0.1-0.4,0.2-0.8,0.2h-2.3C267.4,275.4,267.2,275.3,267,275.1z"/>
	<path class="st0" d="M289,265.2c-0.2-0.2-0.3-0.5-0.3-0.9v-1.7c0-0.3,0.1-0.6,0.2-0.9c0.2-0.3,0.3-0.6,0.5-0.8l14.5-18.5h-13.6
		c-0.3,0-0.6-0.1-0.8-0.3c-0.2-0.2-0.3-0.5-0.3-0.9v-1.6c0-0.3,0.1-0.6,0.3-0.9c0.2-0.2,0.5-0.3,0.8-0.3h18.4c0.3,0,0.6,0.1,0.9,0.3
		c0.2,0.2,0.3,0.5,0.3,0.9v1.8c0,0.4-0.2,0.9-0.7,1.6l-14.3,18.4h14.9c0.4,0,0.7,0.1,0.9,0.3c0.2,0.2,0.3,0.5,0.3,0.9v1.6
		c0,0.3-0.1,0.6-0.3,0.9c-0.2,0.2-0.5,0.3-0.9,0.3h-19.9C289.5,265.5,289.2,265.4,289,265.2z"/>
	<path class="st0" d="M318.6,265c-1.4-0.7-2.6-1.6-3.4-2.8c-0.9-1.2-1.3-2.5-1.3-4c0-2.3,0.9-4.2,2.8-5.6c1.9-1.5,4.4-2.4,7.7-2.9
		l7.8-1.1v-1.5c0-3.6-2.1-5.4-6.2-5.4c-1.6,0-2.9,0.3-3.9,1c-1,0.6-1.7,1.4-2.1,2.3c-0.1,0.3-0.3,0.6-0.4,0.7
		c-0.2,0.1-0.4,0.2-0.7,0.2h-2c-0.3,0-0.6-0.1-0.8-0.3c-0.2-0.2-0.3-0.5-0.3-0.8c0-0.8,0.4-1.7,1.1-2.8c0.7-1.1,1.9-2,3.5-2.8
		c1.6-0.8,3.5-1.2,5.7-1.2c3.9,0,6.7,0.9,8.4,2.7c1.7,1.8,2.5,4.1,2.5,6.8v16.9c0,0.3-0.1,0.6-0.3,0.9c-0.2,0.2-0.5,0.3-0.9,0.3
		h-2.3c-0.3,0-0.6-0.1-0.8-0.3c-0.2-0.2-0.3-0.5-0.3-0.9V262c-0.8,1.1-1.9,2.1-3.3,2.9c-1.5,0.8-3.3,1.1-5.6,1.1
		C321.6,266.1,320,265.7,318.6,265z M330,260c1.5-1.5,2.2-3.7,2.2-6.5v-1.5l-6.1,0.9c-2.5,0.3-4.4,0.9-5.7,1.8
		c-1.3,0.8-1.9,1.9-1.9,3.1c0,1.4,0.6,2.5,1.7,3.3c1.2,0.8,2.5,1.1,4.1,1.1C326.6,262.3,328.5,261.5,330,260z"/>
	<path class="st0" d="M343.8,265.2c-0.2-0.2-0.3-0.5-0.3-0.9v-34.6c0-0.4,0.1-0.7,0.3-0.9c0.2-0.2,0.5-0.3,0.9-0.3h2.2
		c0.3,0,0.6,0.1,0.9,0.3c0.2,0.2,0.3,0.5,0.3,0.9v18.2l10.4-8.6c0.5-0.4,0.9-0.6,1.1-0.7c0.2-0.1,0.5-0.2,1-0.2h2.6
		c0.3,0,0.6,0.1,0.8,0.3c0.2,0.2,0.3,0.5,0.3,0.8c0,0.3-0.2,0.6-0.6,1l-12.2,10l13.5,12.9c0.4,0.4,0.6,0.7,0.6,1
		c0,0.3-0.1,0.6-0.3,0.8c-0.2,0.2-0.4,0.3-0.8,0.3h-2.6c-0.5,0-0.9-0.1-1.1-0.2c-0.2-0.1-0.5-0.3-1-0.7l-11.8-11.1v10.8
		c0,0.3-0.1,0.6-0.3,0.9c-0.2,0.2-0.5,0.3-0.9,0.3h-2.2C344.3,265.5,344,265.4,343.8,265.2z"/>
	<path class="st0" d="M371.3,265c-1.4-0.7-2.6-1.6-3.4-2.8c-0.9-1.2-1.3-2.5-1.3-4c0-2.3,0.9-4.2,2.8-5.6c1.9-1.5,4.4-2.4,7.7-2.9
		l7.8-1.1v-1.5c0-3.6-2.1-5.4-6.2-5.4c-1.6,0-2.9,0.3-3.9,1c-1,0.6-1.7,1.4-2.1,2.3c-0.1,0.3-0.3,0.6-0.4,0.7
		c-0.2,0.1-0.4,0.2-0.7,0.2h-2c-0.3,0-0.6-0.1-0.8-0.3c-0.2-0.2-0.3-0.5-0.3-0.8c0-0.8,0.4-1.7,1.1-2.8c0.7-1.1,1.9-2,3.5-2.8
		c1.6-0.8,3.5-1.2,5.7-1.2c3.9,0,6.7,0.9,8.4,2.7c1.7,1.8,2.5,4.1,2.5,6.8v16.9c0,0.3-0.1,0.6-0.3,0.9c-0.2,0.2-0.5,0.3-0.9,0.3
		h-2.3c-0.3,0-0.6-0.1-0.8-0.3c-0.2-0.2-0.3-0.5-0.3-0.9V262c-0.8,1.1-1.9,2.1-3.3,2.9c-1.5,0.8-3.3,1.1-5.6,1.1
		C374.4,266.1,372.8,265.7,371.3,265z M382.7,260c1.5-1.5,2.2-3.7,2.2-6.5v-1.5l-6.1,0.9c-2.5,0.3-4.4,0.9-5.7,1.8
		c-1.3,0.8-1.9,1.9-1.9,3.1c0,1.4,0.6,2.5,1.7,3.3c1.2,0.8,2.5,1.1,4.1,1.1C379.4,262.3,381.3,261.5,382.7,260z"/>
	<path class="st0" d="M398.2,256.4v-14h-4.1c-0.3,0-0.6-0.1-0.8-0.3c-0.2-0.2-0.3-0.5-0.3-0.8v-1.7c0-0.3,0.1-0.6,0.3-0.9
		c0.2-0.2,0.5-0.3,0.8-0.3h4.1v-8.7c0-0.3,0.1-0.6,0.3-0.9c0.2-0.2,0.5-0.3,0.8-0.3h2.3c0.3,0,0.6,0.1,0.9,0.3
		c0.2,0.2,0.3,0.5,0.3,0.9v8.7h6.5c0.3,0,0.6,0.1,0.9,0.3c0.2,0.2,0.3,0.5,0.3,0.9v1.7c0,0.3-0.1,0.6-0.3,0.8
		c-0.2,0.2-0.5,0.3-0.9,0.3h-6.5v13.6c0,1.8,0.3,3.1,0.9,4c0.6,0.9,1.6,1.4,2.9,1.4h3.2c0.3,0,0.6,0.1,0.8,0.3
		c0.2,0.2,0.3,0.5,0.3,0.9v1.7c0,0.3-0.1,0.6-0.3,0.9c-0.2,0.2-0.5,0.3-0.8,0.3h-3.5C400.9,265.5,398.2,262.5,398.2,256.4z"/>
</g>
<path class="st1" d="M179,245.8c0,24.9-20.2,45.1-45.1,45.1c-3.5,0-6.8-0.4-10.1-1.1c-2-0.5-4-1.1-5.9-1.8c6.2,0,12.2-1.1,17.8-3.1
	c21.2-7.5,36.5-27.7,36.5-51.5c0-4.9-0.6-9.6-1.8-14C175.8,226.8,179,235.9,179,245.8z"/>
<path class="st2" d="M146,275.4c-8.1,5.4-17.8,8.6-28.2,8.6c-2.6,0-5.1-0.2-7.6-0.6c4.2-2.2,7.9-5.1,11-8.7c0,0,0-0.1,0.1-0.1
	c0.6-0.6,1.1-1.3,1.6-1.9c0.1-0.2,0.2-0.3,0.3-0.5c4.5-6.2,7.1-13.8,7.1-21.9c0-14.9-8.8-27.8-21.5-33.8c2.3-0.5,4.7-0.7,7.1-0.7
	c6.3,0,12.2,1.5,17.4,4.3c0.1-6.1,5-11,11.1-11c2.2,0,4.2,0.6,5.9,1.7c3.1,2,5.1,5.4,5.1,9.4c0,4.2-2.3,7.8-5.7,9.7
	c1.7,1.1,3.8,1.7,5.9,1.7c6,0,10.8-4.7,11.1-10.6c1,4,1.5,8.1,1.5,12.4C168.4,250.9,159.5,266.3,146,275.4z"/>
<path class="st3" d="M106,281.1c-0.3-0.3-0.6-0.5-0.9-0.8c-8.4-7-14.1-17-15.7-28.3c-0.2-1.1-0.3-2.2-0.3-3.4c1.3,2,3.5,3.4,6,3.7
	c0.3,0,0.7,0.1,1.1,0.1c1.7,0,3.3-0.5,4.7-1.4c0.5-0.3,0.9-0.7,1.3-1.1c-3.5-1.1-6-4.3-6-8.1c0-2.3,0.9-4.4,2.5-6
	c1.5-1.5,3.6-2.5,6-2.5c3.5,0,6.5,2.1,7.8,5.1c0.6-1.9,0.9-3.8,0.9-5.9c0-0.1,0-0.2,0-0.2c0-1.7-0.3-3.4-0.7-5
	c-0.6-2.2-1.6-4.3-2.9-6.2c6.6,3.8,11.9,9.9,14.6,17.1c1.4,3.7,2.2,7.7,2.2,12c0,7.6-2.5,14.6-6.8,20.2c-0.3,0.3-0.5,0.7-0.8,1
	c-0.1,0.1-0.2,0.3-0.4,0.4c-0.1,0.1-0.2,0.2-0.3,0.4C114.8,276.1,110.7,279.1,106,281.1z"/>
</svg>
